<mxfile host="app.diagrams.net" modified="2020-12-14T11:48:12.966Z" agent="5.0 (Windows NT 6.1; WOW64) AppleWebKit/537.36 (KHTML, like Gecko) Chrome/79.0.3945.130 Safari/537.36" etag="9gBl-145wUix7UXMRQuc" version="13.11.0" type="github">
  <diagram id="7Whu8R5TSbu-gAP8xF7O" name="Page-1">
    <mxGraphModel dx="782" dy="657" grid="1" gridSize="10" guides="1" tooltips="1" connect="1" arrows="1" fold="1" page="1" pageScale="1" pageWidth="827" pageHeight="1169" math="0" shadow="0">
      <root>
        <mxCell id="0" />
        <mxCell id="1" parent="0" />
        <mxCell id="jz9K1NaLNDFQdl0c5jU6-1" value="" style="verticalLabelPosition=bottom;verticalAlign=top;html=1;shape=mxgraph.basic.acute_triangle;dx=0.5;strokeWidth=2;" vertex="1" parent="1">
          <mxGeometry x="200" y="80" width="320" height="240" as="geometry" />
        </mxCell>
        <mxCell id="jz9K1NaLNDFQdl0c5jU6-2" value="" style="endArrow=none;html=1;exitX=0.331;exitY=0.333;exitDx=0;exitDy=0;exitPerimeter=0;strokeWidth=2;entryX=0.666;entryY=0.333;entryDx=0;entryDy=0;entryPerimeter=0;" edge="1" parent="1" source="jz9K1NaLNDFQdl0c5jU6-1" target="jz9K1NaLNDFQdl0c5jU6-1">
          <mxGeometry width="50" height="50" relative="1" as="geometry">
            <mxPoint x="443.8499999999999" y="179.98000000000002" as="sourcePoint" />
            <mxPoint x="410" y="160" as="targetPoint" />
          </mxGeometry>
        </mxCell>
        <mxCell id="jz9K1NaLNDFQdl0c5jU6-3" value="" style="endArrow=none;html=1;strokeWidth=2;entryX=0;entryY=0;entryDx=240;entryDy=120;entryPerimeter=0;" edge="1" parent="1" target="jz9K1NaLNDFQdl0c5jU6-1">
          <mxGeometry width="50" height="50" relative="1" as="geometry">
            <mxPoint x="280" y="200" as="sourcePoint" />
            <mxPoint x="250" y="150" as="targetPoint" />
          </mxGeometry>
        </mxCell>
        <mxCell id="jz9K1NaLNDFQdl0c5jU6-4" value="" style="endArrow=none;html=1;strokeWidth=2;entryX=0.831;entryY=0.667;entryDx=0;entryDy=0;entryPerimeter=0;exitX=0.166;exitY=0.667;exitDx=0;exitDy=0;exitPerimeter=0;" edge="1" parent="1" source="jz9K1NaLNDFQdl0c5jU6-1" target="jz9K1NaLNDFQdl0c5jU6-1">
          <mxGeometry width="50" height="50" relative="1" as="geometry">
            <mxPoint x="210" y="210" as="sourcePoint" />
            <mxPoint x="260" y="160" as="targetPoint" />
          </mxGeometry>
        </mxCell>
        <mxCell id="jz9K1NaLNDFQdl0c5jU6-5" value="" style="endArrow=none;html=1;strokeWidth=2;entryX=0.916;entryY=0.833;entryDx=0;entryDy=0;entryPerimeter=0;exitX=0.075;exitY=0.838;exitDx=0;exitDy=0;exitPerimeter=0;" edge="1" parent="1" source="jz9K1NaLNDFQdl0c5jU6-1" target="jz9K1NaLNDFQdl0c5jU6-1">
          <mxGeometry width="50" height="50" relative="1" as="geometry">
            <mxPoint x="200" y="150" as="sourcePoint" />
            <mxPoint x="250" y="100" as="targetPoint" />
          </mxGeometry>
        </mxCell>
        <mxCell id="jz9K1NaLNDFQdl0c5jU6-6" value="业务系统" style="text;html=1;strokeColor=none;fillColor=none;align=center;verticalAlign=middle;whiteSpace=wrap;rounded=0;" vertex="1" parent="1">
          <mxGeometry x="325" y="130" width="70" height="30" as="geometry" />
        </mxCell>
        <mxCell id="jz9K1NaLNDFQdl0c5jU6-7" value="数据中台&amp;nbsp; 业务中台" style="text;html=1;strokeColor=none;fillColor=none;align=center;verticalAlign=middle;whiteSpace=wrap;rounded=0;" vertex="1" parent="1">
          <mxGeometry x="307.5" y="170" width="105" height="30" as="geometry" />
        </mxCell>
        <mxCell id="jz9K1NaLNDFQdl0c5jU6-8" value="技术中台应用" style="text;html=1;strokeColor=none;fillColor=none;align=center;verticalAlign=middle;whiteSpace=wrap;rounded=0;" vertex="1" parent="1">
          <mxGeometry x="307.5" y="210" width="105" height="30" as="geometry" />
        </mxCell>
        <mxCell id="jz9K1NaLNDFQdl0c5jU6-9" value="中间件" style="text;html=1;strokeColor=none;fillColor=none;align=center;verticalAlign=middle;whiteSpace=wrap;rounded=0;" vertex="1" parent="1">
          <mxGeometry x="325" y="250" width="70" height="30" as="geometry" />
        </mxCell>
        <mxCell id="jz9K1NaLNDFQdl0c5jU6-10" value="云计算平台" style="text;html=1;strokeColor=none;fillColor=none;align=center;verticalAlign=middle;whiteSpace=wrap;rounded=0;" vertex="1" parent="1">
          <mxGeometry x="325" y="290" width="70" height="30" as="geometry" />
        </mxCell>
        <mxCell id="jz9K1NaLNDFQdl0c5jU6-11" value="" style="shape=curlyBracket;whiteSpace=wrap;html=1;rounded=1;strokeWidth=2;" vertex="1" parent="1">
          <mxGeometry x="160" y="200" width="20" height="120" as="geometry" />
        </mxCell>
        <mxCell id="jz9K1NaLNDFQdl0c5jU6-12" value="技术中台" style="text;html=1;strokeColor=none;fillColor=none;align=center;verticalAlign=middle;whiteSpace=wrap;rounded=0;fontSize=15;" vertex="1" parent="1">
          <mxGeometry x="80" y="240" width="70" height="40" as="geometry" />
        </mxCell>
      </root>
    </mxGraphModel>
  </diagram>
</mxfile>
